<svg xmlns="http://www.w3.org/2000/svg" xmlns:xlink="http://www.w3.org/1999/xlink" width="500" zoomAndPan="magnify" viewBox="0 0 375 374.999991" height="500" preserveAspectRatio="xMidYMid meet" version="1.0"><defs><g/><clipPath id="63db2a61e3"><path d="M 220 232 L 247 232 L 247 233.867188 L 220 233.867188 Z M 220 232 " clip-rule="nonzero"/></clipPath><clipPath id="bf75197ac7"><path d="M 113.402344 101.117188 L 268.652344 101.117188 L 268.652344 231 L 113.402344 231 Z M 113.402344 101.117188 " clip-rule="nonzero"/></clipPath><clipPath id="bb22559621"><path d="M 187 6.558594 L 191 6.558594 L 191 14 L 187 14 Z M 187 6.558594 " clip-rule="nonzero"/></clipPath><clipPath id="691017a3e1"><path d="M 160 16 L 218 16 L 218 95.058594 L 160 95.058594 Z M 160 16 " clip-rule="nonzero"/></clipPath><clipPath id="fb1cf55fd5"><path d="M 220 43 L 227.621094 43 L 227.621094 47 L 220 47 Z M 220 43 " clip-rule="nonzero"/></clipPath><clipPath id="334f3586e3"><path d="M 150.371094 43 L 158 43 L 158 47 L 150.371094 47 Z M 150.371094 43 " clip-rule="nonzero"/></clipPath></defs><path fill="#000000" d="M 218.316406 193.871094 L 210.410156 193.871094 L 210.410156 199.269531 L 218.316406 196.316406 Z M 218.316406 193.871094 " fill-opacity="1" fill-rule="nonzero"/><path fill="#000000" d="M 219.984375 193.871094 L 219.984375 195.691406 L 224.855469 193.871094 Z M 219.984375 193.871094 " fill-opacity="1" fill-rule="nonzero"/><path fill="#000000" d="M 247.027344 193.871094 L 242.15625 193.871094 L 247.027344 195.691406 Z M 247.027344 193.871094 " fill-opacity="1" fill-rule="nonzero"/><path fill="#000000" d="M 256.601562 193.871094 L 248.699219 193.871094 L 248.699219 196.316406 L 256.601562 199.269531 Z M 256.601562 193.871094 " fill-opacity="1" fill-rule="nonzero"/><path fill="#000000" d="M 210.410156 184.316406 L 218.316406 184.316406 L 218.316406 192.21875 L 210.410156 192.21875 Z M 210.410156 184.316406 " fill-opacity="1" fill-rule="nonzero"/><path fill="#000000" d="M 219.984375 184.316406 L 227.886719 184.316406 L 227.886719 192.21875 L 219.984375 192.21875 Z M 219.984375 184.316406 " fill-opacity="1" fill-rule="nonzero"/><path fill="#000000" d="M 233.507812 191.042969 C 234.210938 191.042969 234.921875 191.167969 235.558594 191.40625 L 237.457031 192.117188 L 237.457031 184.316406 L 229.554688 184.316406 L 229.554688 192.117188 L 231.453125 191.40625 C 232.089844 191.167969 232.800781 191.042969 233.507812 191.042969 Z M 233.507812 191.042969 " fill-opacity="1" fill-rule="nonzero"/><path fill="#000000" d="M 239.125 184.316406 L 247.027344 184.316406 L 247.027344 192.21875 L 239.125 192.21875 Z M 239.125 184.316406 " fill-opacity="1" fill-rule="nonzero"/><path fill="#000000" d="M 248.699219 184.316406 L 256.601562 184.316406 L 256.601562 192.21875 L 248.699219 192.21875 Z M 248.699219 184.316406 " fill-opacity="1" fill-rule="nonzero"/><path fill="#000000" d="M 219.984375 174.65625 L 227.886719 174.65625 L 227.886719 182.558594 L 219.984375 182.558594 Z M 219.984375 174.65625 " fill-opacity="1" fill-rule="nonzero"/><path fill="#000000" d="M 229.554688 174.65625 L 237.457031 174.65625 L 237.457031 182.558594 L 229.554688 182.558594 Z M 229.554688 174.65625 " fill-opacity="1" fill-rule="nonzero"/><path fill="#000000" d="M 239.125 174.65625 L 247.027344 174.65625 L 247.027344 182.558594 L 239.125 182.558594 Z M 239.125 174.65625 " fill-opacity="1" fill-rule="nonzero"/><path fill="#000000" d="M 248.699219 174.65625 L 256.601562 174.65625 L 256.601562 182.558594 L 248.699219 182.558594 Z M 248.699219 174.65625 " fill-opacity="1" fill-rule="nonzero"/><path fill="#000000" d="M 258.785156 201.582031 L 235.066406 192.71875 C 234.085938 192.351562 232.929688 192.351562 231.945312 192.71875 L 208.226562 201.582031 C 207.332031 201.917969 206.875 202.671875 207.128906 203.394531 L 212.890625 219.84375 L 254.121094 219.84375 L 259.882812 203.394531 C 260.136719 202.671875 259.679688 201.917969 258.785156 201.582031 Z M 214.246094 210.324219 C 213.445312 210.574219 212.304688 209.203125 211.699219 207.261719 C 211.09375 205.320312 211.25 203.542969 212.054688 203.292969 C 212.855469 203.042969 213.996094 204.414062 214.601562 206.355469 C 215.207031 208.296875 215.046875 210.074219 214.246094 210.324219 Z M 214.246094 210.324219 " fill-opacity="1" fill-rule="nonzero"/><path fill="#000000" d="M 208.285156 222.484375 L 258.726562 222.484375 L 258.726562 223.605469 L 208.285156 223.605469 Z M 208.285156 222.484375 " fill-opacity="1" fill-rule="nonzero"/><path fill="#000000" d="M 212.488281 225.90625 L 254.523438 225.90625 L 254.523438 227.027344 L 212.488281 227.027344 Z M 212.488281 225.90625 " fill-opacity="1" fill-rule="nonzero"/><path fill="#000000" d="M 216.691406 229.324219 L 250.320312 229.324219 L 250.320312 230.445312 L 216.691406 230.445312 Z M 216.691406 229.324219 " fill-opacity="1" fill-rule="nonzero"/><g clip-path="url(#63db2a61e3)"><path fill="#000000" d="M 220.894531 232.746094 L 246.117188 232.746094 L 246.117188 233.867188 L 220.894531 233.867188 Z M 220.894531 232.746094 " fill-opacity="1" fill-rule="nonzero"/></g><g clip-path="url(#bf75197ac7)"><path fill="#000000" d="M 203.4375 217.492188 L 195.535156 217.492188 L 195.535156 193.351562 L 192.121094 193.351562 L 192.121094 140.320312 L 208.417969 140.320312 L 208.417969 143.269531 L 212.839844 143.269531 L 212.839844 156.855469 L 212.015625 156.855469 L 212.96875 161.78125 L 213.886719 161.78125 L 213.886719 162.34375 C 213.886719 162.34375 213.804688 162.664062 214.328125 162.933594 C 214.847656 163.199219 214.964844 163.476562 215.011719 163.574219 C 215.046875 163.65625 215.078125 164.046875 214.734375 164.242188 L 214.636719 164.085938 C 214.601562 164.027344 214.535156 163.992188 214.46875 163.992188 C 214.386719 163.988281 214.332031 164.023438 214.292969 164.082031 L 214.117188 164.351562 C 213.851562 164.300781 213.78125 164.0625 213.589844 163.648438 C 213.328125 163.082031 212.925781 163.015625 212.792969 163.140625 C 212.683594 163.242188 212.917969 163.378906 212.984375 164.003906 C 213.035156 164.480469 213.296875 164.890625 213.582031 165.160156 L 210.8125 169.339844 L 210.410156 169.339844 L 210.410156 177.246094 L 218.316406 177.246094 L 218.316406 169.339844 L 217.945312 169.339844 L 215.464844 165.402344 C 215.5625 165.347656 215.667969 165.28125 215.769531 165.203125 C 216.621094 164.570312 216.261719 163.4375 216.015625 163.015625 C 215.769531 162.589844 214.839844 162.238281 214.839844 162.238281 L 214.839844 161.78125 L 215.738281 161.78125 L 216.695312 156.855469 L 215.871094 156.855469 L 215.871094 143.269531 L 220.308594 143.269531 L 220.308594 140.320312 L 268.570312 140.320312 L 268.570312 136.066406 L 265.398438 136.066406 L 192.121094 103.636719 L 192.121094 101.117188 L 187.867188 101.117188 L 187.867188 103.421875 L 124.550781 136.066406 L 113.585938 136.066406 L 113.585938 140.320312 L 122.625 140.320312 L 122.625 142.214844 L 114.832031 142.214844 L 114.832031 143.472656 L 151.613281 143.472656 L 151.613281 145.929688 L 141.042969 145.929688 L 141.042969 147.191406 L 151.613281 147.191406 L 151.613281 193.351562 L 148.203125 193.351562 L 148.203125 217.492188 L 113.484375 217.492188 L 113.484375 230.464844 L 203.4375 230.464844 Z M 217.460938 169.339844 L 211.304688 169.339844 L 213.90625 165.410156 C 214.171875 165.5625 214.582031 165.691406 215.078125 165.554688 Z M 191.445312 203.980469 L 191.445312 214.933594 L 165.222656 214.933594 L 165.222656 197.445312 L 184.90625 197.445312 C 188.515625 197.445312 191.445312 200.371094 191.445312 203.980469 Z M 159.53125 184.0625 L 159.316406 184.394531 L 158.988281 184.0625 Z M 161.472656 184.0625 L 164.085938 184.0625 L 161.535156 186.613281 L 160.503906 185.578125 Z M 161.992188 183.253906 L 162.808594 181.976562 L 164.085938 183.253906 Z M 160.050781 183.253906 L 158.988281 183.253906 L 161.535156 180.703125 L 161.625 180.792969 Z M 161.863281 180.375 L 161.941406 180.296875 L 161.882812 180.394531 Z M 161.535156 180.046875 L 158.988281 177.5 L 163.734375 177.5 L 163.109375 178.472656 Z M 158.988281 176.6875 L 161.535156 174.140625 L 164.085938 176.6875 Z M 161.863281 173.8125 L 164.410156 171.261719 L 164.410156 176.359375 Z M 164.085938 170.9375 L 161.535156 173.484375 L 158.988281 170.9375 Z M 158.988281 170.125 L 161.535156 167.578125 L 164.085938 170.125 Z M 161.863281 167.25 L 164.410156 164.699219 L 164.410156 169.796875 Z M 164.085938 164.371094 L 161.535156 166.921875 L 158.988281 164.371094 Z M 158.988281 163.5625 L 161.535156 161.011719 L 164.085938 163.5625 Z M 161.863281 160.683594 L 164.410156 158.136719 L 164.410156 163.234375 Z M 158.988281 156.996094 L 161.535156 154.449219 L 164.085938 156.996094 Z M 164.085938 157.808594 L 161.535156 160.355469 L 158.988281 157.808594 Z M 161.863281 154.121094 L 164.410156 151.574219 L 164.410156 156.671875 Z M 164.085938 151.246094 L 161.535156 153.792969 L 158.988281 151.246094 Z M 158.988281 150.433594 L 161.535156 147.886719 L 164.085938 150.433594 Z M 161.863281 147.558594 L 164.410156 145.007812 L 164.410156 150.105469 Z M 164.085938 144.679688 L 161.535156 147.230469 L 158.988281 144.679688 Z M 158.988281 143.871094 L 161.535156 141.320312 L 164.085938 143.871094 Z M 161.863281 140.992188 L 162.535156 140.320312 L 164.410156 140.320312 L 164.410156 143.542969 Z M 161.878906 140.320312 L 161.535156 140.667969 L 161.191406 140.320312 Z M 160.535156 140.320312 L 161.207031 140.992188 L 158.660156 143.542969 L 158.660156 140.320312 Z M 161.207031 147.558594 L 158.660156 150.105469 L 158.660156 145.007812 Z M 161.207031 154.121094 L 158.660156 156.671875 L 158.660156 151.574219 Z M 161.207031 160.683594 L 158.660156 163.234375 L 158.660156 158.136719 Z M 161.207031 167.25 L 158.660156 169.796875 L 158.660156 164.699219 Z M 161.207031 173.8125 L 158.660156 176.359375 L 158.660156 171.261719 Z M 161.207031 180.375 L 158.660156 182.925781 L 158.660156 177.828125 Z M 159.0625 184.792969 L 158.660156 185.421875 L 158.660156 184.390625 Z M 160.246094 185.976562 L 161.207031 186.941406 L 158.660156 189.488281 L 158.660156 188.457031 Z M 160.125 214.933594 L 161.535156 213.523438 L 162.945312 214.933594 Z M 163.601562 214.933594 L 161.863281 213.195312 L 164.410156 210.644531 L 164.410156 214.933594 Z M 164.085938 210.316406 L 161.535156 212.867188 L 158.988281 210.316406 Z M 158.988281 209.507812 L 161.535156 206.957031 L 164.085938 209.507812 Z M 161.863281 206.632812 L 164.410156 204.082031 L 164.410156 209.179688 Z M 164.085938 203.753906 L 161.535156 206.304688 L 158.988281 203.753906 Z M 158.988281 202.945312 L 161.535156 200.394531 L 164.085938 202.945312 Z M 161.863281 200.066406 L 164.410156 197.519531 L 164.410156 202.617188 Z M 163.832031 197.445312 L 161.535156 199.738281 L 159.242188 197.445312 Z M 158.988281 189.816406 L 161.535156 187.265625 L 164.085938 189.816406 Z M 164.085938 190.628906 L 161.535156 193.175781 L 158.988281 190.628906 Z M 161.058594 193.351562 L 158.660156 193.351562 L 158.660156 190.953125 Z M 161.207031 200.066406 L 158.660156 202.617188 L 158.660156 197.519531 Z M 161.207031 206.632812 L 158.660156 209.179688 L 158.660156 204.082031 Z M 161.207031 213.195312 L 159.46875 214.933594 L 158.660156 214.933594 L 158.660156 210.644531 Z M 162.011719 193.351562 L 164.410156 190.953125 L 164.410156 193.351562 Z M 161.863281 186.941406 L 164.410156 184.390625 L 164.410156 189.488281 Z M 163.066406 181.578125 L 164.410156 179.476562 L 164.410156 182.925781 Z M 165.222656 170.9375 L 165.222656 140.320312 L 187.550781 140.320312 L 165.222656 175.175781 Z M 185.488281 136.066406 L 185.488281 130.992188 L 182.449219 130.992188 L 182.449219 122.464844 L 181.808594 122.464844 L 181.808594 130.992188 L 180.828125 130.992188 L 180.828125 122.464844 L 180.1875 122.464844 L 180.1875 130.992188 L 176.910156 130.992188 L 176.910156 128.746094 L 160.492188 128.746094 L 160.492188 130.992188 L 157.660156 130.992188 L 157.660156 136.066406 L 143.9375 136.066406 L 187.867188 107.777344 L 187.867188 136.066406 Z M 157.847656 140.320312 L 157.847656 186.6875 L 155.871094 189.777344 L 155.871094 140.320312 Z M 157.847656 189.722656 L 157.847656 193.351562 L 155.871094 193.351562 L 155.871094 192.808594 Z M 152.292969 203.980469 C 152.292969 200.703125 154.703125 197.992188 157.847656 197.519531 L 157.847656 214.933594 L 152.292969 214.933594 Z M 165.222656 193.351562 L 165.222656 178.210938 L 187.867188 142.859375 L 187.867188 193.351562 Z M 192.121094 106.554688 L 240.171875 136.066406 L 203.683594 136.066406 L 203.683594 134.355469 L 194.585938 134.355469 L 194.585938 136.066406 L 192.121094 136.066406 Z M 212.640625 140.75 C 212.113281 140.75 211.683594 140.320312 211.683594 139.792969 C 211.683594 139.265625 212.113281 138.835938 212.640625 138.835938 C 213.167969 138.835938 213.597656 139.265625 213.597656 139.792969 C 213.597656 140.320312 213.167969 140.75 212.640625 140.75 Z M 215.46875 156.855469 L 213.242188 156.855469 L 213.242188 143.273438 L 215.46875 143.273438 Z M 216.347656 140.75 C 215.820312 140.75 215.390625 140.320312 215.390625 139.792969 C 215.390625 139.265625 215.820312 138.835938 216.347656 138.835938 C 216.878906 138.835938 217.304688 139.265625 217.304688 139.792969 C 217.304688 140.320312 216.878906 140.75 216.347656 140.75 Z M 262.871094 136.066406 L 241.347656 136.066406 L 192.121094 105.835938 L 192.121094 104.753906 Z M 187.867188 104.574219 L 187.867188 107.046875 L 142.800781 136.066406 L 126.78125 136.066406 Z M 128.117188 140.320312 L 129.738281 140.320312 L 129.738281 142.214844 L 128.117188 142.214844 Z M 135.230469 142.214844 L 135.230469 140.320312 L 151.613281 140.320312 L 151.613281 142.214844 Z M 135.230469 142.214844 " fill-opacity="1" fill-rule="nonzero"/></g><path fill="#000000" d="M 178.757812 204.195312 C 178.675781 204.128906 178.582031 204.097656 178.484375 204.097656 C 178.472656 204.097656 178.460938 204.09375 178.445312 204.09375 L 176.320312 204.09375 C 176.308594 204.09375 176.292969 204.097656 176.28125 204.097656 C 176.1875 204.097656 176.089844 204.128906 176.007812 204.195312 C 175.84375 204.332031 175.035156 205.183594 175.269531 208.769531 C 175.285156 209 175.476562 209.179688 175.707031 209.179688 C 175.71875 209.179688 175.726562 209.179688 175.738281 209.179688 C 175.824219 209.171875 175.902344 209.140625 175.96875 209.09375 L 176.269531 213.722656 C 176.292969 214.097656 176.617188 214.378906 176.992188 214.355469 C 177.140625 214.347656 177.277344 214.289062 177.382812 214.199219 C 177.488281 214.289062 177.625 214.347656 177.773438 214.355469 C 178.148438 214.378906 178.472656 214.097656 178.496094 213.722656 L 178.796875 209.09375 C 178.863281 209.140625 178.941406 209.171875 179.03125 209.179688 C 179.039062 209.179688 179.050781 209.179688 179.058594 209.179688 C 179.289062 209.179688 179.484375 209 179.5 208.769531 C 179.730469 205.183594 178.921875 204.332031 178.757812 204.195312 Z M 178.757812 204.195312 " fill-opacity="1" fill-rule="nonzero"/><path fill="#000000" d="M 178.621094 202.542969 C 178.621094 202.707031 178.589844 202.863281 178.527344 203.015625 C 178.464844 203.167969 178.375 203.300781 178.257812 203.417969 C 178.144531 203.535156 178.007812 203.625 177.855469 203.6875 C 177.707031 203.75 177.546875 203.78125 177.382812 203.78125 C 177.21875 203.78125 177.0625 203.75 176.910156 203.6875 C 176.757812 203.625 176.625 203.535156 176.507812 203.417969 C 176.390625 203.300781 176.300781 203.167969 176.238281 203.015625 C 176.175781 202.863281 176.144531 202.707031 176.144531 202.542969 C 176.144531 202.378906 176.175781 202.21875 176.238281 202.066406 C 176.300781 201.914062 176.390625 201.78125 176.507812 201.664062 C 176.625 201.550781 176.757812 201.460938 176.910156 201.398438 C 177.0625 201.332031 177.21875 201.300781 177.382812 201.300781 C 177.546875 201.300781 177.707031 201.332031 177.855469 201.398438 C 178.007812 201.460938 178.144531 201.550781 178.257812 201.664062 C 178.375 201.78125 178.464844 201.914062 178.527344 202.066406 C 178.589844 202.21875 178.621094 202.378906 178.621094 202.542969 Z M 178.621094 202.542969 " fill-opacity="1" fill-rule="nonzero"/><path fill="#000000" d="M 137.371094 210.390625 C 137.386719 210.621094 137.582031 210.800781 137.8125 210.800781 C 137.820312 210.800781 137.832031 210.800781 137.839844 210.800781 C 137.929688 210.796875 138.007812 210.761719 138.074219 210.714844 L 138.371094 215.34375 C 138.398438 215.71875 138.722656 216.003906 139.097656 215.976562 C 139.246094 215.96875 139.378906 215.910156 139.488281 215.820312 C 139.59375 215.910156 139.726562 215.96875 139.875 215.976562 C 140.253906 216.003906 140.574219 215.71875 140.601562 215.34375 L 140.898438 210.714844 C 140.964844 210.761719 141.046875 210.796875 141.132812 210.800781 C 141.144531 210.800781 141.152344 210.800781 141.164062 210.800781 C 141.394531 210.800781 141.585938 210.621094 141.601562 210.390625 C 141.835938 206.808594 141.027344 205.953125 140.859375 205.816406 C 140.78125 205.75 140.683594 205.722656 140.585938 205.71875 C 140.574219 205.71875 140.5625 205.714844 140.550781 205.714844 L 138.421875 205.714844 C 138.410156 205.714844 138.398438 205.71875 138.386719 205.71875 C 138.289062 205.722656 138.191406 205.75 138.113281 205.816406 C 137.949219 205.953125 137.136719 206.808594 137.371094 210.390625 Z M 137.371094 210.390625 " fill-opacity="1" fill-rule="nonzero"/><path fill="#000000" d="M 139.488281 205.402344 C 140.171875 205.402344 140.726562 204.847656 140.726562 204.164062 C 140.726562 203.476562 140.171875 202.921875 139.488281 202.921875 C 138.800781 202.921875 138.246094 203.476562 138.246094 204.164062 C 138.246094 204.847656 138.800781 205.402344 139.488281 205.402344 Z M 139.488281 205.402344 " fill-opacity="1" fill-rule="nonzero"/><path fill="#000000" d="M 130.015625 210.390625 C 130.03125 210.621094 130.226562 210.800781 130.453125 210.800781 C 130.464844 210.800781 130.472656 210.800781 130.484375 210.800781 C 130.570312 210.796875 130.652344 210.761719 130.71875 210.714844 L 131.015625 215.34375 C 131.042969 215.71875 131.367188 216.003906 131.742188 215.976562 C 131.890625 215.96875 132.023438 215.910156 132.128906 215.820312 C 132.238281 215.910156 132.371094 215.96875 132.519531 215.976562 C 132.894531 216.003906 133.21875 215.71875 133.246094 215.34375 L 133.542969 210.714844 C 133.609375 210.761719 133.691406 210.796875 133.777344 210.800781 C 133.789062 210.800781 133.796875 210.800781 133.804688 210.800781 C 134.035156 210.800781 134.230469 210.621094 134.246094 210.390625 C 134.480469 206.808594 133.667969 205.953125 133.503906 205.816406 C 133.425781 205.75 133.328125 205.722656 133.230469 205.71875 C 133.21875 205.71875 133.207031 205.714844 133.195312 205.714844 L 131.066406 205.714844 C 131.054688 205.714844 131.042969 205.71875 131.03125 205.71875 C 130.933594 205.722656 130.835938 205.75 130.757812 205.816406 C 130.589844 205.953125 129.78125 206.808594 130.015625 210.390625 Z M 130.015625 210.390625 " fill-opacity="1" fill-rule="nonzero"/><path fill="#000000" d="M 132.128906 205.402344 C 132.816406 205.402344 133.371094 204.847656 133.371094 204.164062 C 133.371094 203.476562 132.816406 202.921875 132.128906 202.921875 C 131.445312 202.921875 130.890625 203.476562 130.890625 204.164062 C 130.890625 204.847656 131.445312 205.402344 132.128906 205.402344 Z M 132.128906 205.402344 " fill-opacity="1" fill-rule="nonzero"/><path fill="#000000" d="M 119.597656 210.390625 C 119.613281 210.621094 119.808594 210.800781 120.039062 210.800781 C 120.046875 210.800781 120.058594 210.800781 120.066406 210.800781 C 120.15625 210.796875 120.234375 210.761719 120.300781 210.714844 L 120.601562 215.34375 C 120.625 215.71875 120.949219 216.003906 121.324219 215.976562 C 121.472656 215.96875 121.605469 215.910156 121.714844 215.820312 C 121.820312 215.910156 121.957031 215.96875 122.105469 215.976562 C 122.480469 216.003906 122.804688 215.71875 122.828125 215.34375 L 123.128906 210.714844 C 123.191406 210.761719 123.273438 210.796875 123.359375 210.800781 C 123.371094 210.800781 123.378906 210.800781 123.390625 210.800781 C 123.621094 210.800781 123.8125 210.621094 123.828125 210.390625 C 124.0625 206.808594 123.253906 205.953125 123.089844 205.816406 C 123.007812 205.75 122.910156 205.722656 122.816406 205.71875 C 122.800781 205.71875 122.789062 205.714844 122.777344 205.714844 L 120.648438 205.714844 C 120.636719 205.714844 120.625 205.71875 120.613281 205.71875 C 120.515625 205.722656 120.421875 205.75 120.339844 205.816406 C 120.175781 205.953125 119.363281 206.808594 119.597656 210.390625 Z M 119.597656 210.390625 " fill-opacity="1" fill-rule="nonzero"/><path fill="#000000" d="M 121.714844 205.402344 C 122.398438 205.402344 122.953125 204.847656 122.953125 204.164062 C 122.953125 203.476562 122.398438 202.921875 121.714844 202.921875 C 121.03125 202.921875 120.476562 203.476562 120.476562 204.164062 C 120.476562 204.847656 121.03125 205.402344 121.714844 205.402344 Z M 121.714844 205.402344 " fill-opacity="1" fill-rule="nonzero"/><path fill="#000000" d="M 185.78125 204.097656 C 185.769531 204.097656 185.757812 204.09375 185.746094 204.09375 L 183.617188 204.09375 C 183.605469 204.09375 183.59375 204.097656 183.582031 204.097656 C 183.484375 204.097656 183.386719 204.128906 183.308594 204.195312 C 183.144531 204.332031 182.332031 205.183594 182.566406 208.769531 C 182.582031 209 182.777344 209.179688 183.007812 209.179688 C 183.015625 209.179688 183.027344 209.179688 183.035156 209.179688 C 183.125 209.171875 183.203125 209.140625 183.269531 209.09375 L 183.570312 213.722656 C 183.59375 214.097656 183.917969 214.378906 184.292969 214.355469 C 184.441406 214.347656 184.574219 214.289062 184.683594 214.199219 C 184.789062 214.289062 184.921875 214.347656 185.074219 214.355469 C 185.449219 214.378906 185.769531 214.097656 185.796875 213.722656 L 186.09375 209.09375 C 186.160156 209.140625 186.242188 209.171875 186.328125 209.179688 C 186.339844 209.179688 186.347656 209.179688 186.359375 209.179688 C 186.589844 209.179688 186.78125 209 186.796875 208.769531 C 187.03125 205.183594 186.222656 204.332031 186.054688 204.195312 C 185.976562 204.128906 185.878906 204.097656 185.78125 204.097656 Z M 185.78125 204.097656 " fill-opacity="1" fill-rule="nonzero"/><path fill="#000000" d="M 183.441406 202.542969 C 183.441406 203.226562 183.996094 203.78125 184.683594 203.78125 C 185.367188 203.78125 185.921875 203.226562 185.921875 202.542969 C 185.921875 201.855469 185.367188 201.300781 184.683594 201.300781 C 183.996094 201.300781 183.441406 201.855469 183.441406 202.542969 Z M 183.441406 202.542969 " fill-opacity="1" fill-rule="nonzero"/><path fill="#000000" d="M 182.652344 24.535156 C 181.273438 24.535156 180.03125 25.089844 179.132812 25.988281 C 177.132812 26.125 175.410156 27.300781 174.582031 28.960938 C 172.375 29.308594 170.648438 31.035156 170.648438 33.246094 C 170.648438 33.59375 170.71875 33.9375 170.789062 34.285156 C 169.339844 35.253906 168.441406 36.84375 168.441406 38.503906 C 168.441406 39.609375 168.789062 40.644531 169.476562 41.476562 C 168.71875 42.304688 168.304688 43.410156 168.304688 44.515625 C 168.304688 45.554688 168.648438 46.589844 169.339844 47.421875 C 169.269531 47.765625 169.203125 48.113281 169.203125 48.457031 C 169.203125 50.53125 170.648438 52.261719 172.648438 52.882812 C 173.132812 54.679688 174.789062 56.0625 176.789062 56.339844 C 177.753906 58 179.617188 59.035156 181.683594 59.035156 C 184.859375 59.035156 187.480469 56.6875 187.480469 53.851562 L 187.617188 28.960938 C 187.617188 26.542969 185.339844 24.535156 182.652344 24.535156 Z M 184.789062 53.921875 C 184.789062 55.164062 183.339844 56.339844 181.753906 56.339844 C 180.511719 56.339844 179.410156 55.648438 179.066406 54.613281 C 178.859375 54.058594 178.375 53.644531 177.753906 53.644531 C 177.753906 53.644531 177.683594 53.644531 177.683594 53.644531 C 177.683594 53.644531 177.617188 53.644531 177.546875 53.644531 C 176.304688 53.644531 175.269531 52.746094 175.269531 51.707031 C 175.269531 51.015625 174.71875 50.394531 173.960938 50.324219 C 172.855469 50.253906 171.960938 49.425781 171.960938 48.457031 C 171.960938 48.179688 172.027344 47.972656 172.167969 47.699219 C 172.511719 47.074219 172.304688 46.382812 171.824219 45.96875 C 171.339844 45.554688 171.0625 45.070312 171.0625 44.515625 C 171.0625 43.824219 171.476562 43.132812 172.234375 42.789062 C 172.648438 42.582031 172.925781 42.097656 172.996094 41.613281 C 172.996094 41.128906 172.789062 40.644531 172.375 40.367188 C 171.683594 39.886719 171.269531 39.195312 171.269531 38.433594 C 171.269531 37.394531 172.027344 36.496094 173.0625 36.152344 C 173.476562 36.011719 173.824219 35.667969 173.960938 35.253906 C 174.097656 34.839844 174.03125 34.355469 173.753906 34.007812 C 173.617188 33.871094 173.476562 33.59375 173.476562 33.179688 C 173.476562 32.347656 174.304688 31.65625 175.339844 31.65625 C 175.410156 31.65625 175.476562 31.65625 175.546875 31.65625 C 176.238281 31.726562 176.855469 31.242188 176.996094 30.550781 C 177.203125 29.445312 178.304688 28.683594 179.617188 28.683594 L 179.824219 28.683594 C 180.304688 28.683594 180.789062 28.476562 181.066406 28.0625 C 181.410156 27.507812 182.097656 27.234375 182.789062 27.234375 C 183.960938 27.234375 184.996094 28.0625 184.996094 28.890625 Z M 184.789062 53.921875 " fill-opacity="1" fill-rule="nonzero"/><g clip-path="url(#bb22559621)"><path fill="#000000" d="M 188.859375 13.472656 C 189.617188 13.472656 190.238281 12.851562 190.238281 12.089844 L 190.238281 7.941406 C 190.238281 7.183594 189.617188 6.5625 188.859375 6.5625 C 188.101562 6.5625 187.480469 7.183594 187.480469 7.941406 L 187.480469 12.089844 C 187.480469 12.851562 188.101562 13.472656 188.859375 13.472656 Z M 188.859375 13.472656 " fill-opacity="1" fill-rule="nonzero"/></g><g clip-path="url(#691017a3e1)"><path fill="#000000" d="M 217.277344 44.792969 C 217.277344 29.03125 204.515625 16.238281 188.859375 16.238281 C 173.203125 16.238281 160.511719 29.03125 160.511719 44.792969 C 160.511719 50.1875 162.027344 55.441406 164.855469 60.003906 C 165.960938 61.734375 167.269531 63.324219 168.511719 64.84375 C 169.203125 65.742188 169.960938 66.640625 170.648438 67.539062 C 174.996094 73.347656 177.753906 79.570312 178.445312 85.65625 L 178.445312 85.722656 C 178.445312 87.730469 179.960938 89.320312 181.890625 89.527344 L 181.890625 90.910156 C 181.890625 93.191406 183.753906 95.058594 186.03125 95.058594 L 191.546875 95.058594 C 193.824219 95.058594 195.6875 93.191406 195.6875 90.910156 L 195.6875 89.457031 C 197.617188 89.25 199.136719 87.730469 199.136719 85.65625 C 199.6875 81.296875 201.273438 76.804688 204.03125 71.964844 C 205.34375 69.683594 206.929688 67.679688 208.585938 65.535156 C 210.101562 63.597656 211.6875 61.59375 213 59.382812 C 215.828125 55.09375 217.277344 49.980469 217.277344 44.792969 Z M 192.996094 90.910156 C 192.996094 91.667969 192.375 92.292969 191.617188 92.292969 L 186.101562 92.292969 C 185.339844 92.292969 184.71875 91.667969 184.71875 90.910156 L 184.71875 89.527344 L 192.996094 89.527344 Z M 206.515625 63.945312 C 204.859375 66.089844 203.136719 68.230469 201.757812 70.652344 C 198.789062 75.835938 197.066406 80.675781 196.515625 85.445312 C 196.515625 85.515625 196.515625 85.585938 196.515625 85.65625 C 196.515625 86.277344 196.03125 86.761719 195.410156 86.761719 L 190.238281 86.761719 L 190.238281 67.402344 C 190.238281 66.640625 189.617188 66.019531 188.859375 66.019531 C 188.101562 66.019531 187.480469 66.640625 187.480469 67.402344 L 187.480469 86.761719 L 182.375 86.761719 C 181.753906 86.761719 181.339844 86.277344 181.273438 85.65625 C 181.273438 85.65625 181.273438 85.378906 181.273438 85.378906 C 180.511719 78.808594 177.617188 72.101562 172.925781 65.882812 C 172.234375 64.914062 171.410156 64.015625 170.71875 63.117188 C 169.476562 61.59375 168.234375 60.140625 167.269531 58.550781 C 164.71875 54.472656 163.339844 49.703125 163.339844 44.792969 C 163.269531 30.550781 174.71875 19.003906 188.859375 19.003906 C 203 19.003906 214.449219 30.550781 214.449219 44.792969 C 214.449219 49.496094 213.207031 54.128906 210.792969 58.136719 C 209.550781 60.140625 208.101562 62.007812 206.515625 63.945312 Z M 206.515625 63.945312 " fill-opacity="1" fill-rule="nonzero"/></g><path fill="#000000" d="M 208.515625 41.476562 C 209.136719 40.578125 209.550781 39.539062 209.550781 38.503906 C 209.550781 36.773438 208.652344 35.253906 207.207031 34.285156 C 207.273438 33.9375 207.34375 33.59375 207.34375 33.246094 C 207.34375 31.105469 205.621094 29.308594 203.410156 28.960938 C 202.585938 27.300781 200.859375 26.125 198.859375 25.988281 C 197.964844 25.019531 196.722656 24.535156 195.34375 24.535156 C 192.652344 24.535156 190.375 26.542969 190.375 28.960938 L 190.445312 53.921875 C 190.445312 56.753906 193.136719 59.105469 196.238281 59.105469 C 198.308594 59.105469 200.171875 58.070312 201.136719 56.410156 C 203.136719 56.132812 204.792969 54.75 205.273438 52.953125 C 207.273438 52.328125 208.722656 50.601562 208.722656 48.527344 C 208.722656 48.179688 208.652344 47.835938 208.585938 47.492188 C 209.273438 46.660156 209.621094 45.625 209.621094 44.585938 C 209.6875 43.410156 209.273438 42.304688 208.515625 41.476562 Z M 206.171875 46.039062 C 205.621094 46.453125 205.480469 47.214844 205.824219 47.765625 C 205.964844 48.042969 206.03125 48.25 206.03125 48.527344 C 206.03125 49.496094 205.136719 50.324219 204.03125 50.394531 C 203.34375 50.464844 202.722656 51.015625 202.722656 51.777344 C 202.722656 52.8125 201.6875 53.710938 200.378906 53.710938 C 200.378906 53.710938 200.308594 53.710938 200.308594 53.710938 C 199.6875 53.644531 199.136719 54.058594 198.929688 54.679688 C 198.582031 55.648438 197.480469 56.339844 196.238281 56.339844 C 194.652344 56.339844 193.203125 55.164062 193.203125 53.921875 L 193.136719 28.960938 C 193.136719 28.132812 194.238281 27.300781 195.34375 27.300781 C 196.03125 27.300781 196.722656 27.648438 197.066406 28.132812 C 197.34375 28.546875 197.824219 28.753906 198.308594 28.753906 L 198.515625 28.753906 C 199.757812 28.753906 200.859375 29.515625 201.136719 30.621094 C 201.273438 31.3125 201.894531 31.726562 202.585938 31.726562 C 202.652344 31.726562 202.722656 31.726562 202.792969 31.726562 C 203.824219 31.726562 204.652344 32.417969 204.652344 33.246094 C 204.652344 33.59375 204.515625 33.871094 204.378906 34.078125 C 204.101562 34.421875 204.03125 34.90625 204.171875 35.320312 C 204.308594 35.738281 204.652344 36.082031 205.066406 36.222656 C 206.171875 36.566406 206.859375 37.535156 206.859375 38.503906 C 206.859375 39.261719 206.445312 39.953125 205.757812 40.4375 C 205.34375 40.714844 205.136719 41.199219 205.136719 41.683594 C 205.136719 42.167969 205.480469 42.582031 205.894531 42.859375 C 206.585938 43.203125 207.066406 43.894531 207.066406 44.585938 C 206.929688 45.070312 206.652344 45.625 206.171875 46.039062 Z M 206.171875 46.039062 " fill-opacity="1" fill-rule="nonzero"/><path fill="#000000" d="M 213.273438 67.609375 C 212.722656 67.054688 211.828125 67.054688 211.34375 67.609375 C 210.792969 68.164062 210.792969 68.992188 211.34375 69.546875 C 211.34375 69.546875 214.308594 72.519531 214.308594 72.519531 C 214.792969 73.003906 215.757812 73.070312 216.242188 72.519531 C 216.792969 71.964844 216.792969 71.136719 216.242188 70.582031 Z M 213.273438 67.609375 " fill-opacity="1" fill-rule="nonzero"/><path fill="#000000" d="M 221.898438 62.632812 L 218.242188 60.558594 C 217.550781 60.140625 216.722656 60.417969 216.378906 61.042969 C 215.964844 61.734375 216.242188 62.5625 216.863281 62.90625 C 216.863281 62.90625 220.515625 64.980469 220.515625 64.980469 C 221.136719 65.328125 222.035156 65.121094 222.378906 64.5 C 222.792969 63.875 222.585938 63.046875 221.898438 62.632812 Z M 221.898438 62.632812 " fill-opacity="1" fill-rule="nonzero"/><path fill="#000000" d="M 225.34375 53.503906 L 221.277344 52.398438 C 220.515625 52.191406 219.757812 52.605469 219.550781 53.367188 C 219.34375 54.128906 219.757812 54.886719 220.515625 55.027344 C 220.515625 55.027344 224.585938 56.132812 224.585938 56.132812 C 225.277344 56.339844 226.105469 55.855469 226.3125 55.164062 C 226.519531 54.472656 226.035156 53.710938 225.34375 53.503906 Z M 225.34375 53.503906 " fill-opacity="1" fill-rule="nonzero"/><g clip-path="url(#fb1cf55fd5)"><path fill="#000000" d="M 226.242188 43.824219 L 222.035156 43.824219 C 221.277344 43.824219 220.65625 44.449219 220.65625 45.207031 C 220.65625 45.96875 221.277344 46.589844 222.035156 46.589844 L 226.242188 46.589844 C 227 46.589844 227.621094 45.96875 227.621094 45.207031 C 227.621094 44.449219 227 43.824219 226.242188 43.824219 Z M 226.242188 43.824219 " fill-opacity="1" fill-rule="nonzero"/></g><path fill="#000000" d="M 219.550781 36.980469 C 219.757812 37.671875 220.515625 38.15625 221.277344 37.949219 L 225.34375 36.84375 C 226.105469 36.636719 226.519531 35.875 226.3125 35.183594 C 226.105469 34.421875 225.34375 34.007812 224.585938 34.214844 L 220.515625 35.320312 C 219.828125 35.53125 219.414062 36.289062 219.550781 36.980469 Z M 219.550781 36.980469 " fill-opacity="1" fill-rule="nonzero"/><path fill="#000000" d="M 216.378906 29.375 C 216.722656 30 217.621094 30.273438 218.242188 29.859375 L 221.898438 27.785156 C 222.585938 27.371094 222.792969 26.542969 222.378906 25.917969 C 221.964844 25.226562 221.136719 25.019531 220.515625 25.433594 L 216.863281 27.507812 C 216.242188 27.855469 216.035156 28.683594 216.378906 29.375 Z M 216.378906 29.375 " fill-opacity="1" fill-rule="nonzero"/><path fill="#000000" d="M 212.308594 23.152344 C 212.929688 23.152344 213.34375 22.667969 213.757812 22.253906 C 214.171875 21.839844 215.828125 20.179688 216.242188 19.765625 C 216.792969 19.210938 216.792969 18.382812 216.242188 17.828125 C 215.6875 17.277344 214.792969 17.277344 214.308594 17.828125 L 211.34375 20.804688 C 210.792969 21.355469 210.792969 22.1875 211.34375 22.738281 C 211.621094 23.015625 211.964844 23.152344 212.308594 23.152344 Z M 212.308594 23.152344 " fill-opacity="1" fill-rule="nonzero"/><path fill="#000000" d="M 204.792969 17.761719 C 205.414062 18.105469 206.308594 17.898438 206.652344 17.277344 L 208.722656 13.683594 C 209.136719 12.992188 208.859375 12.160156 208.238281 11.816406 C 207.550781 11.398438 206.722656 11.675781 206.378906 12.300781 L 204.308594 15.894531 C 203.894531 16.515625 204.101562 17.347656 204.792969 17.761719 Z M 204.792969 17.761719 " fill-opacity="1" fill-rule="nonzero"/><path fill="#000000" d="M 197.066406 14.582031 C 197.824219 14.789062 198.582031 14.304688 198.789062 13.613281 L 199.894531 9.601562 C 200.101562 8.84375 199.6875 8.082031 198.929688 7.875 C 198.171875 7.667969 197.410156 8.082031 197.203125 8.84375 L 196.101562 12.851562 C 195.894531 13.613281 196.375 14.375 197.066406 14.582031 Z M 197.066406 14.582031 " fill-opacity="1" fill-rule="nonzero"/><path fill="#000000" d="M 164.71875 67.609375 L 161.753906 70.582031 C 161.199219 71.136719 161.199219 71.964844 161.753906 72.519531 C 162.304688 73.070312 163.199219 73.003906 163.683594 72.519531 C 163.683594 72.519531 166.648438 69.546875 166.648438 69.546875 C 167.199219 68.992188 167.199219 68.164062 166.648438 67.609375 C 166.097656 67.054688 165.199219 67.054688 164.71875 67.609375 Z M 164.71875 67.609375 " fill-opacity="1" fill-rule="nonzero"/><path fill="#000000" d="M 161.613281 61.042969 C 161.199219 60.351562 160.371094 60.140625 159.753906 60.558594 L 156.097656 62.632812 C 155.40625 63.046875 155.199219 63.875 155.613281 64.5 C 155.957031 65.121094 156.855469 65.398438 157.476562 64.980469 C 157.476562 64.980469 161.132812 62.90625 161.132812 62.90625 C 161.753906 62.5625 161.960938 61.734375 161.613281 61.042969 Z M 161.613281 61.042969 " fill-opacity="1" fill-rule="nonzero"/><path fill="#000000" d="M 158.441406 53.4375 C 158.234375 52.675781 157.476562 52.261719 156.71875 52.46875 L 152.648438 53.574219 C 151.890625 53.78125 151.476562 54.542969 151.683594 55.234375 C 151.890625 55.996094 152.648438 56.410156 153.40625 56.203125 C 153.40625 56.203125 157.476562 55.09375 157.476562 55.09375 C 158.164062 54.886719 158.578125 54.128906 158.441406 53.4375 Z M 158.441406 53.4375 " fill-opacity="1" fill-rule="nonzero"/><g clip-path="url(#334f3586e3)"><path fill="#000000" d="M 155.957031 46.589844 C 156.71875 46.589844 157.339844 45.96875 157.339844 45.207031 C 157.339844 44.449219 156.71875 43.824219 155.957031 43.824219 L 151.75 43.824219 C 150.992188 43.824219 150.371094 44.449219 150.371094 45.207031 C 150.371094 45.96875 150.992188 46.589844 151.75 46.589844 Z M 155.957031 46.589844 " fill-opacity="1" fill-rule="nonzero"/></g><path fill="#000000" d="M 152.648438 36.914062 L 156.71875 38.019531 C 157.40625 38.226562 158.234375 37.742188 158.441406 37.050781 C 158.648438 36.289062 158.234375 35.53125 157.476562 35.390625 L 153.40625 34.214844 C 152.648438 34.007812 151.890625 34.421875 151.683594 35.183594 C 151.476562 35.945312 151.957031 36.703125 152.648438 36.914062 Z M 152.648438 36.914062 " fill-opacity="1" fill-rule="nonzero"/><path fill="#000000" d="M 156.097656 27.785156 L 159.753906 29.859375 C 160.371094 30.207031 161.269531 30 161.613281 29.375 C 162.027344 28.683594 161.753906 27.855469 161.132812 27.507812 L 157.476562 25.433594 C 156.785156 25.019531 155.957031 25.296875 155.613281 25.917969 C 155.199219 26.542969 155.40625 27.371094 156.097656 27.785156 Z M 156.097656 27.785156 " fill-opacity="1" fill-rule="nonzero"/><path fill="#000000" d="M 164.167969 22.324219 C 164.582031 22.738281 164.992188 23.222656 165.613281 23.222656 C 165.960938 23.222656 166.375 23.085938 166.582031 22.808594 C 167.132812 22.253906 167.132812 21.425781 166.582031 20.871094 L 163.613281 17.898438 C 163.0625 17.347656 162.167969 17.347656 161.683594 17.898438 C 161.132812 18.453125 161.132812 19.28125 161.683594 19.835938 C 162.097656 20.25 163.753906 21.839844 164.167969 22.324219 Z M 164.167969 22.324219 " fill-opacity="1" fill-rule="nonzero"/><path fill="#000000" d="M 171.339844 17.277344 C 171.683594 17.898438 172.582031 18.175781 173.203125 17.761719 C 173.890625 17.347656 174.097656 16.515625 173.683594 15.894531 L 171.617188 12.300781 C 171.203125 11.609375 170.375 11.398438 169.753906 11.816406 C 169.0625 12.230469 168.855469 13.058594 169.269531 13.683594 Z M 171.339844 17.277344 " fill-opacity="1" fill-rule="nonzero"/><path fill="#000000" d="M 179.203125 13.613281 C 179.410156 14.375 180.167969 14.789062 180.925781 14.582031 C 181.683594 14.375 182.097656 13.613281 181.890625 12.851562 L 180.789062 8.84375 C 180.582031 8.082031 179.824219 7.667969 179.066406 7.875 C 178.304688 8.082031 177.890625 8.84375 178.097656 9.601562 Z M 179.203125 13.613281 " fill-opacity="1" fill-rule="nonzero"/><g fill="#000000" fill-opacity="1"><g transform="translate(89.957614, 259.468691)"><g><path d="M 15.8125 -14.546875 L 10.296875 -14.546875 L 10.296875 0 L 5.640625 0 L 5.640625 -14.546875 L 0.1875 -14.546875 L 0.1875 -18.3125 L 15.8125 -18.3125 Z M 15.8125 -14.546875 "/></g></g></g><g fill="#000000" fill-opacity="1"><g transform="translate(105.914997, 259.468691)"><g><path d="M 12.859375 0 L 10.140625 -5.140625 L 6.484375 -5.140625 L 6.484375 0 L 1.828125 0 L 1.828125 -18.28125 L 10 -18.28125 C 12.425781 -18.28125 14.300781 -17.726562 15.625 -16.625 C 16.945312 -15.519531 17.609375 -13.945312 17.609375 -11.90625 C 17.609375 -9.09375 16.503906 -7.132812 14.296875 -6.03125 L 18.125 0 Z M 6.484375 -8.796875 L 10 -8.796875 C 11.007812 -8.796875 11.789062 -9.046875 12.34375 -9.546875 C 12.90625 -10.054688 13.1875 -10.789062 13.1875 -11.75 C 13.1875 -12.695312 12.90625 -13.410156 12.34375 -13.890625 C 11.789062 -14.378906 11.007812 -14.625 10 -14.625 L 6.484375 -14.625 Z M 6.484375 -8.796875 "/></g></g></g><g fill="#000000" fill-opacity="1"><g transform="translate(124.823578, 259.468691)"><g><path d="M 13.984375 -3.375 L 5.984375 -3.375 L 4.65625 0 L -0.125 0 L 7.765625 -18.28125 L 12.546875 -18.28125 L 20.25 0 L 15.28125 0 Z M 12.625 -6.890625 L 10 -13.65625 L 7.34375 -6.890625 Z M 12.625 -6.890625 "/></g></g></g><g fill="#000000" fill-opacity="1"><g transform="translate(144.933536, 259.468691)"><g><path d="M 10.390625 -18.4375 C 11.753906 -18.4375 13.09375 -18.15625 14.40625 -17.59375 C 15.71875 -17.039062 16.835938 -16.296875 17.765625 -15.359375 L 15.078125 -12.171875 C 14.484375 -12.898438 13.769531 -13.476562 12.9375 -13.90625 C 12.113281 -14.332031 11.289062 -14.546875 10.46875 -14.546875 C 9.03125 -14.546875 7.820312 -14.035156 6.84375 -13.015625 C 5.863281 -12.003906 5.375 -10.75 5.375 -9.25 C 5.375 -7.71875 5.863281 -6.4375 6.84375 -5.40625 C 7.820312 -4.375 9.03125 -3.859375 10.46875 -3.859375 C 11.238281 -3.859375 12.035156 -4.050781 12.859375 -4.4375 C 13.691406 -4.820312 14.429688 -5.347656 15.078125 -6.015625 L 17.796875 -3.140625 C 16.796875 -2.128906 15.617188 -1.316406 14.265625 -0.703125 C 12.921875 -0.0976562 11.578125 0.203125 10.234375 0.203125 C 7.484375 0.203125 5.191406 -0.691406 3.359375 -2.484375 C 1.535156 -4.273438 0.625 -6.515625 0.625 -9.203125 C 0.625 -11.828125 1.554688 -14.019531 3.421875 -15.78125 C 5.285156 -17.550781 7.609375 -18.4375 10.390625 -18.4375 Z M 10.390625 -18.4375 "/></g></g></g><g fill="#000000" fill-opacity="1"><g transform="translate(163.006378, 259.468691)"><g><path d="M 16.140625 -14.625 L 6.484375 -14.625 L 6.484375 -11 L 15.203125 -11 L 15.203125 -7.34375 L 6.484375 -7.34375 L 6.484375 -3.65625 L 16.4375 -3.65625 L 16.4375 0 L 1.828125 0 L 1.828125 -18.28125 L 16.140625 -18.28125 Z M 16.140625 -14.625 "/></g></g></g><g fill="#000000" fill-opacity="1"><g transform="translate(180.609121, 259.468691)"><g/></g></g><g fill="#000000" fill-opacity="1"><g transform="translate(186.668222, 259.468691)"><g><path d="M 15.4375 0.78125 L 12.859375 -1.71875 C 11.304688 -0.4375 9.570312 0.203125 7.65625 0.203125 C 5.863281 0.203125 4.378906 -0.296875 3.203125 -1.296875 C 2.023438 -2.296875 1.4375 -3.570312 1.4375 -5.125 C 1.4375 -6.238281 1.757812 -7.171875 2.40625 -7.921875 C 3.050781 -8.679688 3.9375 -9.375 5.0625 -10 C 4.039062 -11.46875 3.53125 -12.835938 3.53125 -14.109375 C 3.53125 -15.453125 4.003906 -16.519531 4.953125 -17.3125 C 5.898438 -18.101562 7.164062 -18.5 8.75 -18.5 C 10.28125 -18.5 11.535156 -18.113281 12.515625 -17.34375 C 13.492188 -16.582031 13.984375 -15.597656 13.984375 -14.390625 C 13.984375 -13.242188 13.601562 -12.296875 12.84375 -11.546875 C 12.082031 -10.796875 11.023438 -10.070312 9.671875 -9.375 C 10.585938 -8.363281 11.550781 -7.363281 12.5625 -6.375 C 13.070312 -7.25 13.484375 -8.222656 13.796875 -9.296875 L 16.671875 -7.265625 C 16.234375 -6.078125 15.675781 -4.992188 15 -4.015625 L 17.71875 -1.4375 Z M 7.046875 -14.109375 C 7.046875 -13.335938 7.363281 -12.472656 8 -11.515625 C 9.632812 -12.410156 10.453125 -13.363281 10.453125 -14.375 C 10.453125 -14.84375 10.296875 -15.222656 9.984375 -15.515625 C 9.679688 -15.816406 9.285156 -15.96875 8.796875 -15.96875 C 8.265625 -15.96875 7.835938 -15.789062 7.515625 -15.4375 C 7.203125 -15.09375 7.046875 -14.648438 7.046875 -14.109375 Z M 7.84375 -2.953125 C 8.78125 -2.953125 9.679688 -3.289062 10.546875 -3.96875 C 8.703125 -5.8125 7.457031 -7.101562 6.8125 -7.84375 C 5.6875 -7.09375 5.125 -6.289062 5.125 -5.4375 C 5.125 -4.707031 5.378906 -4.109375 5.890625 -3.640625 C 6.398438 -3.179688 7.050781 -2.953125 7.84375 -2.953125 Z M 7.84375 -2.953125 "/></g></g></g><g fill="#000000" fill-opacity="1"><g transform="translate(204.55825, 259.468691)"><g/></g></g><g fill="#000000" fill-opacity="1"><g transform="translate(210.617352, 259.468691)"><g><path d="M 15.8125 -14.546875 L 10.296875 -14.546875 L 10.296875 0 L 5.640625 0 L 5.640625 -14.546875 L 0.1875 -14.546875 L 0.1875 -18.3125 L 15.8125 -18.3125 Z M 15.8125 -14.546875 "/></g></g></g><g fill="#000000" fill-opacity="1"><g transform="translate(226.574742, 259.468691)"><g><path d="M 12.859375 0 L 10.140625 -5.140625 L 6.484375 -5.140625 L 6.484375 0 L 1.828125 0 L 1.828125 -18.28125 L 10 -18.28125 C 12.425781 -18.28125 14.300781 -17.726562 15.625 -16.625 C 16.945312 -15.519531 17.609375 -13.945312 17.609375 -11.90625 C 17.609375 -9.09375 16.503906 -7.132812 14.296875 -6.03125 L 18.125 0 Z M 6.484375 -8.796875 L 10 -8.796875 C 11.007812 -8.796875 11.789062 -9.046875 12.34375 -9.546875 C 12.90625 -10.054688 13.1875 -10.789062 13.1875 -11.75 C 13.1875 -12.695312 12.90625 -13.410156 12.34375 -13.890625 C 11.789062 -14.378906 11.007812 -14.625 10 -14.625 L 6.484375 -14.625 Z M 6.484375 -8.796875 "/></g></g></g><g fill="#000000" fill-opacity="1"><g transform="translate(245.483323, 259.468691)"><g><path d="M 13.984375 -3.375 L 5.984375 -3.375 L 4.65625 0 L -0.125 0 L 7.765625 -18.28125 L 12.546875 -18.28125 L 20.25 0 L 15.28125 0 Z M 12.625 -6.890625 L 10 -13.65625 L 7.34375 -6.890625 Z M 12.625 -6.890625 "/></g></g></g><g fill="#000000" fill-opacity="1"><g transform="translate(265.593281, 259.468691)"><g><path d="M 10.390625 -18.4375 C 11.753906 -18.4375 13.09375 -18.15625 14.40625 -17.59375 C 15.71875 -17.039062 16.835938 -16.296875 17.765625 -15.359375 L 15.078125 -12.171875 C 14.484375 -12.898438 13.769531 -13.476562 12.9375 -13.90625 C 12.113281 -14.332031 11.289062 -14.546875 10.46875 -14.546875 C 9.03125 -14.546875 7.820312 -14.035156 6.84375 -13.015625 C 5.863281 -12.003906 5.375 -10.75 5.375 -9.25 C 5.375 -7.71875 5.863281 -6.4375 6.84375 -5.40625 C 7.820312 -4.375 9.03125 -3.859375 10.46875 -3.859375 C 11.238281 -3.859375 12.035156 -4.050781 12.859375 -4.4375 C 13.691406 -4.820312 14.429688 -5.347656 15.078125 -6.015625 L 17.796875 -3.140625 C 16.796875 -2.128906 15.617188 -1.316406 14.265625 -0.703125 C 12.921875 -0.0976562 11.578125 0.203125 10.234375 0.203125 C 7.484375 0.203125 5.191406 -0.691406 3.359375 -2.484375 C 1.535156 -4.273438 0.625 -6.515625 0.625 -9.203125 C 0.625 -11.828125 1.554688 -14.019531 3.421875 -15.78125 C 5.285156 -17.550781 7.609375 -18.4375 10.390625 -18.4375 Z M 10.390625 -18.4375 "/></g></g></g><g fill="#000000" fill-opacity="1"><g transform="translate(283.666116, 259.468691)"><g><path d="M 13.734375 0 L 8.90625 -7.1875 L 6.484375 -4.5 L 6.484375 0 L 1.828125 0 L 1.828125 -18.28125 L 6.484375 -18.28125 L 6.484375 -10.375 L 13.484375 -18.28125 L 18.859375 -18.28125 L 12.0625 -10.71875 L 19.3125 0 Z M 13.734375 0 "/></g></g></g></svg>